# xmcd CD database file
#
# Track frame offsets:
#	150
#	20697
#	40305
#	64590
#	88622
#	108842
#	129333
#	149858
#	168120
#	189940
#
# Disc length: 2869 seconds
#
# Revision: 3
# Processed by: cddbd v1.5.1PL0 Copyright (c) Steve Scherf et al.
# Submitted via: CDex 1.51
#
DISCID=820b330a
DTITLE=Sibaris - Gaia
DYEAR=1999
DGENRE=New Age
TTITLE0=A orillas de ti
TTITLE1=Mundo submarino
TTITLE2=Mar de la Tranquilidad
TTITLE3=La sabiduria del viento
TTITLE4=Lagrimas de nube
TTITLE5=Madre selva
TTITLE6=Oasis
TTITLE7=El latido del agua
TTITLE8=Contracorriente
TTITLE9=Para las estrellas
EXTD=YEAR: 1999
EXTT0=
EXTT1=
EXTT2=
EXTT3=
EXTT4=
EXTT5=
EXTT6=
EXTT7=
EXTT8=
EXTT9=
PLAYORDER=
